HIERARCHY
ROOT root
{
	OFFSET	0	13.1	24.9
	CHANNELS 6  Xposition Yposition Zposition Xrotation Yrotation Zrotation
	JOINT spine_1
	{
		OFFSET	0	9.99999	0
		CHANNELS 3  Xrotation Yrotation Zrotation
		JOINT spine_2
		{
			OFFSET	0	112	-10
			CHANNELS 3  Xrotation Yrotation Zrotation
			JOINT spine_3
			{
				OFFSET	0	206.5	19.3
				CHANNELS 3  Xrotation Yrotation Zrotation
				JOINT spine_4
				{
					OFFSET	0	110.4	14.6
					CHANNELS 3  Xrotation Yrotation Zrotation
					JOINT neck_1
					{
						OFFSET	0	71.8	-50.3
						CHANNELS 3  Xrotation Yrotation Zrotation
						JOINT neck_2
						{
							OFFSET	0	86.2	-25.8
							CHANNELS 3  Xrotation Yrotation Zrotation
							JOINT head_ee
							{
								OFFSET	0	179.8	-8.7
								CHANNELS 3  Xrotation Yrotation Zrotation
								End Site
								{
									OFFSET	1	0	0
								}
							}
						}
					}
					JOINT left_clavicle
					{
						OFFSET	-43.2	22.4	-70.8
						CHANNELS 3  Xrotation Yrotation Zrotation
						JOINT left_shoulder
						{
							OFFSET	-93.9	-5.79999	48.7
							CHANNELS 3  Xrotation Yrotation Zrotation
							JOINT left_elbow
							{
								OFFSET	-291.4	-30.8	15.2
								CHANNELS 3  Xrotation Yrotation Zrotation
								JOINT left_lowarm_twist
								{
									OFFSET	-110.7	-3.89999	13.6
									CHANNELS 3  Xrotation Yrotation Zrotation
									JOINT left_hand
									{
										OFFSET	-110.7	-3.89999	13.6
										CHANNELS 3  Xrotation Yrotation Zrotation
										JOINT left_ee
										{
											OFFSET	-80.8	-5.10001	12.1
											CHANNELS 3  Xrotation Yrotation Zrotation
											End Site
											{
												OFFSET	1	0	0
											}
										}
									}
								}
							}
						}
					}
					JOINT right_clavicle
					{
						OFFSET	43.2	22.4	-70.8
						CHANNELS 3  Xrotation Yrotation Zrotation
						JOINT right_shoulder
						{
							OFFSET	93.9	-5.79999	48.7
							CHANNELS 3  Xrotation Yrotation Zrotation
							JOINT right_elbow
							{
								OFFSET	291.4	-30.8	15.2
								CHANNELS 3  Xrotation Yrotation Zrotation
								JOINT right_lowarm_twist
								{
									OFFSET	110.7	-3.89999	13.6
									CHANNELS 3  Xrotation Yrotation Zrotation
									JOINT right_hand
									{
										OFFSET	110.7	-3.89999	13.6
										CHANNELS 3  Xrotation Yrotation Zrotation
										JOINT right_ee
										{
											OFFSET	80.8	-5.10001	12.1
											CHANNELS 3  Xrotation Yrotation Zrotation
											End Site
											{
												OFFSET	1	0	0
											}
										}
									}
								}
							}
						}
					}
				}
			}
		}
	}
	JOINT left_hip
	{
		OFFSET	-82.8	-127.5	0.300001
		CHANNELS 3  Xrotation Yrotation Zrotation
		JOINT left_knee
		{
			OFFSET	-28.2	-396.7	2.2
			CHANNELS 3  Xrotation Yrotation Zrotation
			JOINT left_ankle
			{
				OFFSET	-11.7	-411.3	35.4
				CHANNELS 3  Xrotation Yrotation Zrotation
				JOINT left_toes
				{
					OFFSET	0	-60	-88.6
					CHANNELS 3  Xrotation Yrotation Zrotation
					JOINT left_foot_ee
					{
						OFFSET	-22.5	-16.5	-42.2
						CHANNELS 3  Xrotation Yrotation Zrotation
						End Site
						{
							OFFSET	1	0	0
						}
					}
				}
			}
		}
	}
	JOINT right_hip
	{
		OFFSET	82.8	-127.5	0.300001
		CHANNELS 3  Xrotation Yrotation Zrotation
		JOINT right_knee
		{
			OFFSET	28.2	-396.7	2.2
			CHANNELS 3  Xrotation Yrotation Zrotation
			JOINT right_ankle
			{
				OFFSET	11.7	-411.3	35.4
				CHANNELS 3  Xrotation Yrotation Zrotation
				JOINT right_toes
				{
					OFFSET	0	-60	-88.6
					CHANNELS 3  Xrotation Yrotation Zrotation
					JOINT right_foot_ee
					{
						OFFSET	22.5	-16.5	-42.2
						CHANNELS 3  Xrotation Yrotation Zrotation
						End Site
						{
							OFFSET	1	0	0
						}
					}
				}
			}
		}
	}
}
MOTION
Frames: 11
Frame Time: 0.02
1372.05 701.618 -1475.22 -6.96452875295 32.270531535 1.50401909539 0.168133 0.0741288 -0.398793 0.168216 0.0993546 -0.393268 0.167549 0.17873 -0.364125 0.167383 0.118981 -0.387782 1.69447 17.1 8.64408 2.22777 22.9457 10.8088 -0.0 0.0 -0.0 9.3486 1.6086 18.2477 -4.31567 -17.3979 51.612 4.77228 -67.0482 3.16262 -7.79362 -0.338895 0.936171 -1.12321 -3.25348 -8.96502 -0.0 0.0 -0.0 10.7177 1.01964 -21.2039 -27.8349 23.7087 -49.7231 0.305273 8.59948 -0.0229522 55.8193 1.41619 6.70916 0.767818 -0.65076 -5.40097 0.0 0.0 0.0 -0.90631 -6.29057 12.4918 -13.1762 0.314516 1.99317 41.6962 13.0131 -5.05344 9.13117 -0.0 -0.0 -0.0 0.0 -0.0 40.2794 19.8653 -0.796671 2.64173 0.117766 0.388215 -0.941647 4.96325 -0.141979 -36.1663 0.0 0.0 0.0 0.0 0.0 
1297.37451672 691.951 -1555.32492305 -5.91078262442 38.873181339 -0.148332583626 0.198461 0.138034 -0.0180727 0.198451 0.138905 -0.00925259 0.198424 0.137816 0.0196714 0.19845 0.139193 -0.00234094 2.75945 15.5504 6.22159 3.23434 21.9426 7.94892 -0.0 0.0 -0.0 10.1137 3.49195 19.675 -11.4331 -16.0249 54.2865 3.23289 -58.0055 1.79255 -11.4645 -0.541992 1.35947 -0.744525 -2.37878 -6.01469 -0.0 0.0 -0.0 10.8596 2.61741 -21.583 -26.9042 24.9587 -49.7675 0.383295 10.7512 -0.0360674 56.3612 1.4609 6.7623 0.393668 -3.87694 -4.22499 0.0 0.0 0.0 -7.70981 -9.65096 14.4755 -13.4002 0.315876 2.02751 41.4058 9.90567 -4.99705 13.9707 -0.0 -0.0 -0.0 0.0 -0.0 38.8398 20.6578 1.14411 -17.1764 -0.318566 -2.60678 11.3347 7.76504 1.66447 -30.3775 0.0 0.0 0.0 0.0 0.0 
1297.77872783 691.951 -1555.6998399 -5.88700802542 38.5862685839 -0.18633245661 0.198461 0.138034 -0.0180727 0.198451 0.138905 -0.00925259 0.198424 0.137816 0.0196714 0.19845 0.139193 -0.00234094 2.75945 15.5504 6.22159 3.23434 21.9426 7.94892 -0.0 0.0 -0.0 10.1137 3.49195 19.675 -11.4331 -16.0249 54.2865 3.23289 -58.0055 1.79255 -11.4645 -0.541992 1.35947 -0.744525 -2.37878 -6.01469 -0.0 0.0 -0.0 10.8596 2.61741 -21.583 -26.9042 24.9587 -49.7675 0.383295 10.7512 -0.0360674 56.3612 1.4609 6.7623 0.393668 -3.87694 -4.22499 0.0 0.0 0.0 -7.70981 -9.65096 14.4755 -13.4002 0.315876 2.02751 41.4058 9.90567 -4.99705 13.9707 -0.0 -0.0 -0.0 0.0 -0.0 38.8398 20.6578 1.14411 -17.1764 -0.318566 -2.60678 11.3347 7.76504 1.66447 -30.3775 0.0 0.0 0.0 0.0 0.0 
1298.11785983 691.951 -1556.01149182 -5.86740454045 38.346564865 -0.217846416244 0.198461 0.138034 -0.0180727 0.198451 0.138905 -0.00925259 0.198424 0.137816 0.0196714 0.19845 0.139193 -0.00234094 2.75945 15.5504 6.22159 3.23434 21.9426 7.94892 -0.0 0.0 -0.0 10.1137 3.49195 19.675 -11.4331 -16.0249 54.2865 3.23289 -58.0055 1.79255 -11.4645 -0.541992 1.35947 -0.744525 -2.37878 -6.01469 -0.0 0.0 -0.0 10.8596 2.61741 -21.583 -26.9042 24.9587 -49.7675 0.383295 10.7512 -0.0360674 56.3612 1.4609 6.7623 0.393668 -3.87694 -4.22499 0.0 0.0 0.0 -7.70981 -9.65096 14.4755 -13.4002 0.315876 2.02751 41.4058 9.90567 -4.99705 13.9707 -0.0 -0.0 -0.0 0.0 -0.0 38.8398 20.6578 1.14411 -17.1764 -0.318566 -2.60678 11.3347 7.76504 1.66447 -30.3775 0.0 0.0 0.0 0.0 0.0 
1262.17784548 692.75 -1597.5502226 -4.74560405524 41.410417011 -0.441025073176 0.341337 0.149738 -0.279723 0.341365 0.167234 -0.269628 0.340566 0.218808 -0.229761 0.340537 0.179775 -0.261434 3.02692 14.4495 5.44563 3.44513 20.5965 7.00369 -0.0 0.0 -0.0 9.95627 4.16997 19.3105 -15.1658 -14.5672 56.1372 2.39454 -49.8604 1.11317 -13.0243 -0.636444 1.53528 -0.212536 -0.892228 -1.79911 -0.0 0.0 -0.0 11.0553 3.10453 -22.0236 -26.0386 25.7872 -50.2497 0.432037 12.0803 -0.0457152 56.299 1.45574 6.75622 0.162974 -7.19581 -4.05958 0.0 0.0 0.0 -8.65569 -9.95657 13.8855 -19.0233 0.305981 2.88986 41.5774 12.316 -5.03486 16.6423 -0.0 -0.0 -0.0 0.0 -0.0 34.9025 17.3271 0.726449 -17.545 -0.316784 -2.66331 21.4213 9.04137 3.02248 -28.8727 0.0 0.0 0.0 0.0 0.0 
1234.73261155 686.778 -1618.18220245 -3.49844714108 43.5930102658 -0.990912068952 0.39037 0.29074 -0.126182 0.390329 0.29818 -0.107425 0.389741 0.313802 -0.0444897 0.389866 0.302838 -0.093491 2.04 13.4762 5.34913 2.37885 19.2073 6.92723 -0.0 0.0 -0.0 9.90557 5.29733 19.1236 -17.0418 -13.8245 57.0705 2.12309 -46.4381 0.910879 -15.2947 -0.782434 1.78651 -0.128775 0.0682874 -0.831002 -0.0 0.0 -0.0 11.2002 3.47259 -22.3517 -24.5189 25.8457 -50.4983 0.419905 11.7507 -0.0432105 56.7469 1.49302 6.79985 -0.0653677 -9.91865 -3.68971 0.0 0.0 0.0 -6.93186 -9.69239 12.5991 -24.2068 0.222029 3.68056 41.156 14.0165 -5.02038 17.0261 -0.0 -0.0 -0.0 0.0 -0.0 28.984 15.4931 0.634394 -14.1218 -0.31934 -2.13817 28.8667 10.206 3.92577 -27.6091 0.0 0.0 0.0 0.0 0.0 
1214.8206841 689.546 -1644.16533768 -1.14187942548 45.5868429932 -2.73815683164 0.326242 0.238711 0.00993726 0.32621 0.237595 0.025107 0.326306 0.227432 0.0731887 0.326376 0.236136 0.0363514 1.00014 12.7292 4.80904 1.28531 18.5749 6.3749 -0.0 0.0 -0.0 10.4449 6.49733 20.0766 -20.0479 -12.3585 55.0991 1.82895 -42.1728 0.705285 -16.0537 -0.833451 1.86919 0.13782 0.585796 1.16565 -0.0 0.0 -0.0 11.2816 3.49636 -22.5287 -22.4967 26.3075 -51.4293 0.437637 12.2322 -0.0468946 57.3617 1.54475 6.85928 -0.541669 -13.2034 -2.02283 0.0 0.0 0.0 -7.33962 -10.7678 10.8621 -30.9271 0.00743989 4.68901 41.6419 15.6807 -5.08833 18.908 -0.0 -0.0 -0.0 0.0 -0.0 27.7435 13.743 -0.902249 -18.2959 -0.312027 -2.77842 38.4211 9.00437 4.86522 -26.7225 0.0 0.0 0.0 0.0 0.0 
1197.21189243 694.359 -1655.98868711 -0.468414925117 46.955035408 -2.913297626 0.258661 0.258876 0.11131 0.258632 0.251269 0.127558 0.259197 0.219649 0.176526 0.259237 0.244771 0.139621 0.284556 12.1376 4.29257 0.531915 18.0988 5.83332 -0.0 0.0 -0.0 10.2314 7.13469 19.5974 -22.7416 -11.4019 54.1684 1.60634 -38.5076 0.561112 -16.2671 -0.847993 1.89232 0.3466 1.10695 2.77442 -0.0 0.0 -0.0 11.3901 3.96676 -22.784 -20.0252 27.0633 -52.3804 0.449971 12.5662 -0.049543 58.4818 1.64064 6.96612 -0.92051 -15.8814 -0.809973 0.0 0.0 0.0 -6.35738 -11.2703 9.82057 -33.5601 -0.108678 5.07631 38.9556 17.3992 -4.87739 19.8386 -0.0 -0.0 -0.0 0.0 -0.0 23.7995 12.1735 -2.33369 -21.3648 -0.276922 -3.24794 41.7296 4.34051 5.06719 -19.6193 0.0 0.0 0.0 0.0 0.0 
1176.94764866 697.597 -1671.7512044 1.3830303834 47.5631897875 -4.0737238587 0.160833 0.304923 0.370649 0.160865 0.280719 0.389301 0.162841 0.193882 0.439053 0.162667 0.260789 0.402924 0.0358013 11.8067 3.83902 0.267637 17.9285 5.3388 -0.0 0.0 -0.0 10.0956 7.72882 19.2768 -25.2458 -10.5511 53.9773 1.43508 -35.4068 0.458109 -16.8085 -0.885274 1.95076 0.437331 2.36305 3.89582 -0.0 0.0 -0.0 11.5017 5.02655 -23.0686 -18.2232 27.5578 -53.0645 0.472283 13.168 -0.0545116 59.9083 1.76577 7.09946 -1.1559 -17.7886 -0.208456 0.0 0.0 0.0 -3.83445 -11.3394 8.26412 -37.742 -0.329397 5.67956 36.3668 19.0857 -4.66036 20.0686 -0.0 -0.0 -0.0 0.0 -0.0 20.9158 10.4122 -3.06788 -23.4844 -0.238017 -3.57085 40.4427 0.319538 4.91618 -14.1407 0.0 0.0 0.0 0.0 0.0 
1184.17640118 697.597 -1678.67258088 1.3312913384 45.4930267663 -4.00244131036 0.160833 0.304923 0.370649 0.160865 0.280719 0.389301 0.162841 0.193882 0.439053 0.162667 0.260789 0.402924 0.0358013 11.8067 3.83902 0.267637 17.9285 5.3388 -0.0 0.0 -0.0 10.0956 7.72882 19.2768 -25.2458 -10.5511 53.9773 1.43508 -35.4068 0.458109 -16.8085 -0.885274 1.95076 0.437331 2.36305 3.89582 -0.0 0.0 -0.0 11.5017 5.02655 -23.0686 -18.2232 27.5578 -53.0645 0.472283 13.168 -0.0545116 59.9083 1.76577 7.09946 -1.1559 -17.7886 -0.208456 0.0 0.0 0.0 -3.83445 -11.3394 8.26412 -37.742 -0.329397 5.67956 36.3668 19.0857 -4.66036 20.0686 -0.0 -0.0 -0.0 0.0 -0.0 20.9158 10.4122 -3.06788 -23.4844 -0.238017 -3.57085 40.4427 0.319538 4.91618 -14.1407 0.0 0.0 0.0 0.0 0.0 
1175.94823662 699.792 -1695.81818698 1.75002163868 44.8019803224 -4.43552756264 0.136726 0.372549 0.511974 0.136808 0.339217 0.534642 0.140099 0.220736 0.593451 0.139743 0.311689 0.551144 -0.222679 11.5683 3.51886 -0.0033165 17.8121 4.99847 -0.0 0.0 -0.0 9.80379 8.25684 18.6672 -27.4013 -9.71635 53.7298 1.31276 -33.0345 0.389304 -17.187 -0.911661 1.99139 0.49808 3.26481 4.66747 -0.0 0.0 -0.0 11.5902 5.88489 -23.2913 -16.5707 28.0702 -53.3923 0.487975 13.5895 -0.0581426 60.9255 1.85701 7.19264 -1.32205 -19.0596 0.22442 0.0 0.0 0.0 -2.19791 -11.5475 7.25386 -41.0725 -0.536407 6.14776 34.5488 20.2351 -4.49885 20.2421 -0.0 -0.0 -0.0 0.0 -0.0 18.8268 9.08464 -3.7952 -24.4323 -0.216756 -3.71475 39.7134 -2.65975 4.83692 -10.2713 0.0 0.0 0.0 0.0 0.0 
